<svg xmlns="http://www.w3.org/2000/svg" viewBox="0 0 512 512" width="512" height="512">
  <defs>
    <linearGradient id="idBg" x1="0%" y1="0%" x2="100%" y2="100%">
      <stop offset="0%" stop-color="#290216"/>
      <stop offset="100%" stop-color="#4c0226"/>
    </linearGradient>
    <filter id="idGlow" x="-20%" y="-20%" width="140%" height="140%">
      <feDropShadow dx="0" dy="4" stdDeviation="12" flood-color="#ff3366" flood-opacity="0.35"/>
    </filter>
  </defs>
  <rect width="512" height="512" rx="100" fill="url(#idBg)"/>
  <rect x="12" y="12" width="488" height="488" rx="90" fill="none" stroke="#ff3366" stroke-width="16" opacity="0.85"/>
  <!-- I -->
  <rect x="120" y="150" width="60" height="215" rx="12" fill="#ff3366" filter="url(#idGlow)"/>
  <!-- d -->
  <path d="M315 150 H365 V365 H315 V335 C300 358 275 372 245 372 C190 372 155 330 155 272 C155 214 190 172 245 172 C275 172 300 186 315 209 Z M260 218 C230 218 210 240 210 272 C210 304 230 326 260 326 C290 326 315 304 315 272 C315 240 290 218 260 218 Z" fill="#ff3366" filter="url(#idGlow)"/>
</svg>